<!--
  - The MIT License (MIT)
  -
  - Copyright (c) 2015-2025 Elior "Mallowigi" Boukhobza
  -
  - Permission is hereby granted, free of charge, to any person obtaining a copy
  - of this software and associated documentation files (the "Software"), to deal
  - in the Software without restriction, including without limitation the rights
  - to use, copy, modify, merge, publish, distribute, sublicense, and/or sell
  - copies of the Software, and to permit persons to whom the Software is
  - furnished to do so, subject to the following conditions:
  -
  - The above copyright notice and this permission notice shall be included in all
  - copies or substantial portions of the Software.
  -
  - THE SOFTWARE IS PROVIDED "AS IS", WITHOUT WARRANTY OF ANY KIND, EXPRESS OR
  - IMPLIED, INCLUDING BUT NOT LIMITED TO THE WARRANTIES OF MERCHANTABILITY,
  - FITNESS FOR A PARTICULAR PURPOSE AND NONINFRINGEMENT. IN NO EVENT SHALL THE
  - AUTHORS OR COPYRIGHT HOLDERS BE LIABLE FOR ANY CLAIM, DAMAGES OR OTHER
  - LIABILITY, WHETHER IN AN ACTION OF CONTRACT, TORT OR OTHERWISE, ARISING FROM,
  - OUT OF OR IN CONNECTION WITH THE SOFTWARE OR THE USE OR OTHER DEALINGS IN THE
  - SOFTWARE.
  -
  -->

<svg xmlns="http://www.w3.org/2000/svg" height="20px" viewBox="0 -960 960 960" width="20px" fill="#F9A825">
  <path
    d="M480-280q-73 0-127.5-45.5T284-440H120q-17 0-28.5-11.5T80-480q0-17 11.5-28.5T120-520h164q14-69 68.5-114.5T480-680q73 0 127.5 45.5T676-520h164q17 0 28.5 11.5T880-480q0 17-11.5 28.5T840-440H676q-14 69-68.5 114.5T480-280Zm0-80q50 0 85-35t35-85q0-50-35-85t-85-35q-50 0-85 35t-35 85q0 50 35 85t85 35Z"/>
</svg>
