<svg width="20" height="20" viewBox="0 0 20 20" fill="none" xmlns="http://www.w3.org/2000/svg"><path d="M18.5 11.75a.75.75 0 0 0 0-1.5zm-4.5 0h4.5v-1.5H14zm3.855-4.762a.75.75 0 0 0-.71-1.322zM14.744 8.66l3.111-1.673-.71-1.322-3.111 1.673zm3.111 6.352a.75.75 0 0 1-.71 1.322zm-3.111-1.673 3.111 1.673-.71 1.322-3.111-1.673zM2.143 6.988a.75.75 0 1 1 .71-1.322zM5.254 8.66 2.143 6.988l.71-1.322L5.965 7.34zm-3.111 6.352a.75.75 0 1 0 .71 1.322zm3.111-1.673-3.111 1.673.71 1.322 3.112-1.673zM1.5 11.75a.75.75 0 0 1 0-1.5zm4.5 0H1.5v-1.5H6z" fill="#499c54"/><path d="M8.5 5.75h3A3.25 3.25 0 0 1 14.75 9v3.5a4.75 4.75 0 1 1-9.5 0V9A3.25 3.25 0 0 1 8.5 5.75Z" stroke="#499c54" stroke-width="1.5"/><path d="M8 5.03V5a2 2 0 1 1 4 .03 4 4 0 0 1 1.463.484Q13.5 5.262 13.5 5a3.5 3.5 0 1 0-6.963.514A4 4 0 0 1 8 5.031" fill="#499c54"/></svg>