<svg width="20" height="20" viewBox="0 0 20 20" fill="none" xmlns="http://www.w3.org/2000/svg"><path d="M8.5 17.685c-4.025-.86-6.5-3.4-6.5-6.645C2 7.82 4.74 5.5 8.5 5.5c2.939 0 5.135 1.18 5.474 3h-1.408c-.386-.998-1.919-1.74-3.986-1.74-2.9 0-5.08 1.78-5.08 4.28 0 2.416 1.87 4.346 5 5.108z" fill="#b589ec"/><path d="M17.983 8.5C17.704 4.718 13.975 2 8.36 2c-1.48 0-3.12.26-4.58.88-.52.22-.78.48-.78.86 0 .46.46.84 1.18.54C5.46 3.74 7 3.5 8.36 3.5c4.734 0 7.823 2.096 8.117 5zM8.5 14.006v-1.41c-.732-.406-1.16-.97-1.16-1.596 0-.908.778-1.42 1.94-1.204.278-.341.618-.63 1.003-.847C7.918 8.024 5.98 9.14 5.98 11c0 1.358.97 2.423 2.52 3.006" fill="#b589ec"/><path d="M19.25 12v6.787l-2.915-1.458-.158-.079H12c-.69 0-1.25-.56-1.25-1.25v-4c0-.69.56-1.25 1.25-1.25h6c.69 0 1.25.56 1.25 1.25Z" stroke="#b589ec" stroke-width="1.5"/></svg>