<svg width="20" height="20" viewBox="0 0 20 20" fill="none" xmlns="http://www.w3.org/2000/svg"><path fill-rule="evenodd" clip-rule="evenodd" d="M2.75 1a.75.75 0 0 1 .75.75V4H6V3a2 2 0 0 1 2-2h8a2 2 0 0 1 2 2v4a2 2 0 0 1-2 2H8a2 2 0 0 1-2-2V5.5H3.5V14H6v-1a2 2 0 0 1 2-2h8a2 2 0 0 1 2 2v4a2 2 0 0 1-2 2H8a2 2 0 0 1-2-2v-1.5H3.5v2.75a.75.75 0 0 1-1.5 0V1.75A.75.75 0 0 1 2.75 1M16 12.5H8a.5.5 0 0 0-.5.5v4a.5.5 0 0 0 .5.5h8a.5.5 0 0 0 .5-.5v-4a.5.5 0 0 0-.5-.5m-8-10h8a.5.5 0 0 1 .5.5v4a.5.5 0 0 1-.5.5H8a.5.5 0 0 1-.5-.5V3a.5.5 0 0 1 .5-.5" fill="#3f89ec"/></svg>